<mxfile host="app.diagrams.net" modified="2021-04-12T17:12:39.407Z" agent="5.0 (Windows NT 10.0; Win64; x64) AppleWebKit/537.36 (KHTML, like Gecko) Chrome/89.0.4389.114 Safari/537.36 Edg/89.0.774.75" etag="sHoqG8NtjQlaZJC84Fzo" version="14.5.7" type="github" pages="2">
  <diagram name="Page-1" id="c4acf3e9-155e-7222-9cf6-157b1a14988f">
    <mxGraphModel dx="1293" dy="603" grid="1" gridSize="10" guides="1" tooltips="1" connect="1" arrows="1" fold="1" page="1" pageScale="1" pageWidth="850" pageHeight="1100" background="#ffffff" math="0" shadow="0">
      <root>
        <mxCell id="0" />
        <mxCell id="1" parent="0" />
        <mxCell id="w-K9gkln1mTXEIpbY9fb-1" value="package" style="shape=folder;fontStyle=1;spacingTop=10;tabWidth=40;tabHeight=37;tabPosition=left;html=1;shadow=1;fillColor=none;" parent="1" vertex="1">
          <mxGeometry x="40" y="70" width="2490" height="1387" as="geometry" />
        </mxCell>
        <mxCell id="17acba5748e5396b-20" value="Giocatore" style="swimlane;html=1;fontStyle=0;childLayout=stackLayout;horizontal=1;startSize=26;fillColor=none;horizontalStack=0;resizeParent=1;resizeLast=0;collapsible=1;marginBottom=0;swimlaneFillColor=#ffffff;rounded=0;shadow=0;comic=0;labelBackgroundColor=none;strokeWidth=1;fontFamily=Verdana;fontSize=10;align=center;" parent="1" vertex="1">
          <mxGeometry x="400" y="248" width="270" height="318" as="geometry" />
        </mxCell>
        <mxCell id="17acba5748e5396b-21" value="- nickName : String" style="text;html=1;strokeColor=none;fillColor=none;align=left;verticalAlign=top;spacingLeft=4;spacingRight=4;whiteSpace=wrap;overflow=hidden;rotatable=0;points=[[0,0.5],[1,0.5]];portConstraint=eastwest;" parent="17acba5748e5396b-20" vertex="1">
          <mxGeometry y="26" width="270" height="26" as="geometry" />
        </mxCell>
        <mxCell id="17acba5748e5396b-24" value="- victoryPoints : int" style="text;html=1;strokeColor=none;fillColor=none;align=left;verticalAlign=top;spacingLeft=4;spacingRight=4;whiteSpace=wrap;overflow=hidden;rotatable=0;points=[[0,0.5],[1,0.5]];portConstraint=eastwest;" parent="17acba5748e5396b-20" vertex="1">
          <mxGeometry y="52" width="270" height="26" as="geometry" />
        </mxCell>
        <mxCell id="Tt4_UZsse2JY--aP2vom-22" value="~ discounts: ArrayList &amp;lt;Resource&amp;gt;" style="text;html=1;strokeColor=none;fillColor=none;align=left;verticalAlign=top;spacingLeft=4;spacingRight=4;whiteSpace=wrap;overflow=hidden;rotatable=0;points=[[0,0.5],[1,0.5]];portConstraint=eastwest;" parent="17acba5748e5396b-20" vertex="1">
          <mxGeometry y="78" width="270" height="26" as="geometry" />
        </mxCell>
        <mxCell id="Tt4_UZsse2JY--aP2vom-35" value="~ emptyValue ArrayList &amp;lt;Resource&amp;gt;" style="text;html=1;strokeColor=none;fillColor=none;align=left;verticalAlign=top;spacingLeft=4;spacingRight=4;whiteSpace=wrap;overflow=hidden;rotatable=0;points=[[0,0.5],[1,0.5]];portConstraint=eastwest;" parent="17acba5748e5396b-20" vertex="1">
          <mxGeometry y="104" width="270" height="26" as="geometry" />
        </mxCell>
        <mxCell id="VZWiPymxHDZce6uz7Lrc-4" value="- &amp;nbsp;leaderCard :&amp;nbsp;ArrayList&amp;lt;LeaderCard&amp;gt;&lt;br&gt;;" style="text;html=1;strokeColor=none;fillColor=none;align=left;verticalAlign=top;spacingLeft=4;spacingRight=4;whiteSpace=wrap;overflow=hidden;rotatable=0;points=[[0,0.5],[1,0.5]];portConstraint=eastwest;" parent="17acba5748e5396b-20" vertex="1">
          <mxGeometry y="130" width="270" height="26" as="geometry" />
        </mxCell>
        <mxCell id="Tt4_UZsse2JY--aP2vom-36" value="" style="line;strokeWidth=1;fillColor=none;align=left;verticalAlign=middle;spacingTop=-1;spacingLeft=3;spacingRight=3;rotatable=0;labelPosition=right;points=[];portConstraint=eastwest;" parent="17acba5748e5396b-20" vertex="1">
          <mxGeometry y="156" width="270" height="8" as="geometry" />
        </mxCell>
        <mxCell id="Tt4_UZsse2JY--aP2vom-37" value="+ setNickname(String name)&lt;br&gt;+ getNickname() : String&lt;br&gt;+ getVictoryPoint() int&lt;br&gt;+ getDevCard(String coloro, int level) : DevCard" style="text;html=1;strokeColor=none;fillColor=none;align=left;verticalAlign=top;spacingLeft=4;spacingRight=4;whiteSpace=wrap;overflow=hidden;rotatable=0;points=[[0,0.5],[1,0.5]];portConstraint=eastwest;" parent="17acba5748e5396b-20" vertex="1">
          <mxGeometry y="164" width="270" height="76" as="geometry" />
        </mxCell>
        <mxCell id="VZWiPymxHDZce6uz7Lrc-1" value="+ getBoard() : Board" style="text;html=1;strokeColor=none;fillColor=none;align=left;verticalAlign=top;spacingLeft=4;spacingRight=4;whiteSpace=wrap;overflow=hidden;rotatable=0;points=[[0,0.5],[1,0.5]];portConstraint=eastwest;" parent="17acba5748e5396b-20" vertex="1">
          <mxGeometry y="240" width="270" height="26" as="geometry" />
        </mxCell>
        <mxCell id="VZWiPymxHDZce6uz7Lrc-2" value="+ addLeaderCard(LeaderCard card)" style="text;html=1;strokeColor=none;fillColor=none;align=left;verticalAlign=top;spacingLeft=4;spacingRight=4;whiteSpace=wrap;overflow=hidden;rotatable=0;points=[[0,0.5],[1,0.5]];portConstraint=eastwest;" parent="17acba5748e5396b-20" vertex="1">
          <mxGeometry y="266" width="270" height="26" as="geometry" />
        </mxCell>
        <mxCell id="VZWiPymxHDZce6uz7Lrc-3" value="+ addVictoryPoints(int vp)" style="text;html=1;strokeColor=none;fillColor=none;align=left;verticalAlign=top;spacingLeft=4;spacingRight=4;whiteSpace=wrap;overflow=hidden;rotatable=0;points=[[0,0.5],[1,0.5]];portConstraint=eastwest;" parent="17acba5748e5396b-20" vertex="1">
          <mxGeometry y="292" width="270" height="26" as="geometry" />
        </mxCell>
        <mxCell id="8uedm5YtxWgwwN68aBkR-3" style="edgeStyle=orthogonalEdgeStyle;rounded=0;orthogonalLoop=1;jettySize=auto;html=1;entryX=0.199;entryY=-0.005;entryDx=0;entryDy=0;entryPerimeter=0;" edge="1" parent="1" source="5d2195bd80daf111-5" target="w-K9gkln1mTXEIpbY9fb-5">
          <mxGeometry relative="1" as="geometry">
            <Array as="points">
              <mxPoint x="1538" y="650" />
            </Array>
          </mxGeometry>
        </mxCell>
        <mxCell id="5d2195bd80daf111-5" value="Board" style="swimlane;html=1;fontStyle=0;childLayout=stackLayout;horizontal=1;startSize=26;fillColor=none;horizontalStack=0;resizeParent=1;resizeLast=0;collapsible=1;marginBottom=0;swimlaneFillColor=#ffffff;rounded=0;shadow=0;comic=0;labelBackgroundColor=none;strokeWidth=1;fontFamily=Verdana;fontSize=10;align=center;" parent="1" vertex="1">
          <mxGeometry x="730" y="580" width="160" height="83" as="geometry" />
        </mxCell>
        <mxCell id="5d2195bd80daf111-12" value="&lt;p style=&quot;margin: 0px ; margin-top: 4px ; text-align: center&quot;&gt;&lt;i&gt;enum&amp;nbsp;&lt;/i&gt;&lt;/p&gt;&lt;p style=&quot;margin: 0px ; margin-top: 4px ; text-align: center&quot;&gt;Resource&lt;/p&gt;&lt;hr size=&quot;1&quot;&gt;&lt;p style=&quot;margin: 0px ; margin-left: 4px&quot;&gt;- color : String&lt;br&gt;- type : Gold, Shield, Servant, Shield, Faith, Empty&lt;/p&gt;&lt;hr size=&quot;1&quot;&gt;&lt;p style=&quot;margin: 0px ; margin-left: 4px&quot;&gt;&lt;br&gt;&lt;/p&gt;" style="verticalAlign=top;align=left;overflow=fill;fontSize=12;fontFamily=Helvetica;html=1;rounded=0;shadow=0;comic=0;labelBackgroundColor=none;strokeWidth=1" parent="1" vertex="1">
          <mxGeometry x="310" y="1010" width="340" height="100" as="geometry" />
        </mxCell>
        <mxCell id="RtRzZt0xqBWtNR3uWcVC-4" value="1" style="text;html=1;strokeColor=none;fillColor=none;align=center;verticalAlign=middle;whiteSpace=wrap;rounded=0;" parent="1" vertex="1">
          <mxGeometry x="800" y="548" width="40" height="20" as="geometry" />
        </mxCell>
        <mxCell id="RtRzZt0xqBWtNR3uWcVC-6" value="" style="endArrow=classic;html=1;entryX=0.651;entryY=-0.008;entryDx=0;entryDy=0;entryPerimeter=0;" parent="1" target="5d2195bd80daf111-5" edge="1">
          <mxGeometry width="50" height="50" relative="1" as="geometry">
            <mxPoint x="680" y="490" as="sourcePoint" />
            <mxPoint x="830" y="440" as="targetPoint" />
            <Array as="points">
              <mxPoint x="834" y="490" />
            </Array>
          </mxGeometry>
        </mxCell>
        <mxCell id="RtRzZt0xqBWtNR3uWcVC-7" value="1" style="text;html=1;strokeColor=none;fillColor=none;align=center;verticalAlign=middle;whiteSpace=wrap;rounded=0;" parent="1" vertex="1">
          <mxGeometry x="670" y="470" width="40" height="20" as="geometry" />
        </mxCell>
        <mxCell id="RtRzZt0xqBWtNR3uWcVC-22" style="edgeStyle=orthogonalEdgeStyle;rounded=0;orthogonalLoop=1;jettySize=auto;html=1;" parent="1" source="RtRzZt0xqBWtNR3uWcVC-19" target="5d2195bd80daf111-12" edge="1">
          <mxGeometry relative="1" as="geometry" />
        </mxCell>
        <mxCell id="RtRzZt0xqBWtNR3uWcVC-19" value="&lt;p style=&quot;margin: 0px ; margin-top: 4px ; text-align: center&quot;&gt;&lt;b&gt;StrongBox&lt;/b&gt;&lt;/p&gt;&lt;hr size=&quot;1&quot;&gt;&lt;p style=&quot;margin: 0px ; margin-left: 4px&quot;&gt;&lt;br&gt;&lt;/p&gt;&lt;hr size=&quot;1&quot;&gt;&lt;p style=&quot;margin: 0px ; margin-left: 4px&quot;&gt;+ addResources(Resource): void&lt;/p&gt;&lt;p style=&quot;margin: 0px ; margin-left: 4px&quot;&gt;+ getResources(): arrayList&amp;lt;Resources&amp;gt;&lt;/p&gt;&lt;p style=&quot;margin: 0px ; margin-left: 4px&quot;&gt;+ removeResource(Resource res): boolean&lt;/p&gt;&lt;p style=&quot;margin: 0px ; margin-left: 4px&quot;&gt;+ checkAvailability(arraylist&amp;lt;Resource&amp;gt; res): boolean&lt;/p&gt;&lt;p style=&quot;margin: 0px ; margin-left: 4px&quot;&gt;+ checkAvailabilityMarket(Resource res): boolean&lt;br&gt;&lt;/p&gt;" style="verticalAlign=top;align=left;overflow=fill;fontSize=12;fontFamily=Helvetica;html=1;rounded=0;shadow=0;comic=0;labelBackgroundColor=none;strokeWidth=1" parent="1" vertex="1">
          <mxGeometry x="530" y="695" width="310" height="145" as="geometry" />
        </mxCell>
        <mxCell id="RtRzZt0xqBWtNR3uWcVC-25" style="edgeStyle=orthogonalEdgeStyle;rounded=0;orthogonalLoop=1;jettySize=auto;html=1;" parent="1" source="RtRzZt0xqBWtNR3uWcVC-20" target="5d2195bd80daf111-12" edge="1">
          <mxGeometry relative="1" as="geometry">
            <Array as="points">
              <mxPoint x="385" y="980" />
              <mxPoint x="385" y="980" />
            </Array>
          </mxGeometry>
        </mxCell>
        <mxCell id="RtRzZt0xqBWtNR3uWcVC-20" value="&lt;p style=&quot;margin: 0px ; margin-top: 4px ; text-align: center&quot;&gt;&lt;b&gt;WareHouse&lt;/b&gt;&lt;/p&gt;&lt;hr size=&quot;1&quot;&gt;&lt;p style=&quot;margin: 0px ; margin-left: 4px&quot;&gt;- level 1: Resource&lt;/p&gt;&lt;p style=&quot;margin: 0px ; margin-left: 4px&quot;&gt;- level 2: Resource[2]&lt;/p&gt;&lt;p style=&quot;margin: 0px ; margin-left: 4px&quot;&gt;- level 3: Resource[3]&lt;/p&gt;&lt;p style=&quot;margin: 0px ; margin-left: 4px&quot;&gt;~ levels ArraList &amp;lt;Resources&amp;gt;&lt;/p&gt;&lt;hr size=&quot;1&quot;&gt;&lt;p style=&quot;margin: 0px ; margin-left: 4px&quot;&gt;+ addResources(int livello, Resource res): void&lt;/p&gt;&lt;p style=&quot;margin: 0px ; margin-left: 4px&quot;&gt;+ getResources(): arrayList&amp;lt;Resources&amp;gt;&lt;/p&gt;&lt;p style=&quot;margin: 0px ; margin-left: 4px&quot;&gt;+ removeResource(Resource res): boolean&lt;/p&gt;&lt;p style=&quot;margin: 0px ; margin-left: 4px&quot;&gt;+ checkAvailability(Resource res): boolean&lt;/p&gt;&lt;p style=&quot;margin: 0px ; margin-left: 4px&quot;&gt;+ checkAvailabilityMarket(Resource res): boolean&lt;/p&gt;&lt;p style=&quot;margin: 0px ; margin-left: 4px&quot;&gt;+ checkSpace(int livello, Resource ins): boolean&lt;/p&gt;&lt;p style=&quot;margin: 0px ; margin-left: 4px&quot;&gt;+ switchLevels(int livello1, int livello2): void&lt;/p&gt;" style="verticalAlign=top;align=left;overflow=fill;fontSize=12;fontFamily=Helvetica;html=1;rounded=0;shadow=0;comic=0;labelBackgroundColor=none;strokeWidth=1" parent="1" vertex="1">
          <mxGeometry x="250" y="695" width="270" height="205" as="geometry" />
        </mxCell>
        <mxCell id="RtRzZt0xqBWtNR3uWcVC-23" value="0...*" style="text;html=1;strokeColor=none;fillColor=none;align=center;verticalAlign=middle;whiteSpace=wrap;rounded=0;" parent="1" vertex="1">
          <mxGeometry x="480" y="980" width="40" height="20" as="geometry" />
        </mxCell>
        <mxCell id="RtRzZt0xqBWtNR3uWcVC-24" value="1" style="text;html=1;strokeColor=none;fillColor=none;align=center;verticalAlign=middle;whiteSpace=wrap;rounded=0;" parent="1" vertex="1">
          <mxGeometry x="650" y="840" width="40" height="20" as="geometry" />
        </mxCell>
        <mxCell id="RtRzZt0xqBWtNR3uWcVC-26" value="0...6" style="text;html=1;strokeColor=none;fillColor=none;align=center;verticalAlign=middle;whiteSpace=wrap;rounded=0;" parent="1" vertex="1">
          <mxGeometry x="380" y="980" width="40" height="20" as="geometry" />
        </mxCell>
        <mxCell id="RtRzZt0xqBWtNR3uWcVC-27" value="1" style="text;html=1;strokeColor=none;fillColor=none;align=center;verticalAlign=middle;whiteSpace=wrap;rounded=0;" parent="1" vertex="1">
          <mxGeometry x="380" y="900" width="40" height="20" as="geometry" />
        </mxCell>
        <mxCell id="Tt4_UZsse2JY--aP2vom-6" style="edgeStyle=orthogonalEdgeStyle;rounded=0;orthogonalLoop=1;jettySize=auto;html=1;" parent="1" source="RtRzZt0xqBWtNR3uWcVC-28" target="Tt4_UZsse2JY--aP2vom-1" edge="1">
          <mxGeometry relative="1" as="geometry" />
        </mxCell>
        <mxCell id="RtRzZt0xqBWtNR3uWcVC-28" value="&lt;p style=&quot;margin: 0px ; margin-top: 4px ; text-align: center&quot;&gt;&lt;b&gt;Slot&lt;/b&gt;&lt;/p&gt;&lt;hr size=&quot;1&quot;&gt;&lt;p style=&quot;margin: 0px ; margin-left: 4px&quot;&gt;- slots: arrayList&amp;lt;DevCard&amp;gt;[5]&lt;/p&gt;&lt;hr size=&quot;1&quot;&gt;&lt;p style=&quot;margin: 0px ; margin-left: 4px&quot;&gt;+ purchaseCard(DevCard card, int slot) : void&lt;/p&gt;&lt;p style=&quot;margin: 0px ; margin-left: 4px&quot;&gt;+ checkSpace(DevCard card, int slot): boolean&lt;/p&gt;&lt;p style=&quot;margin: 0px ; margin-left: 4px&quot;&gt;+ getFrontCards(): DevCards[3]&lt;/p&gt;&lt;p style=&quot;margin: 0px ; margin-left: 4px&quot;&gt;&lt;br&gt;&lt;/p&gt;" style="verticalAlign=top;align=left;overflow=fill;fontSize=12;fontFamily=Helvetica;html=1;rounded=0;shadow=0;comic=0;labelBackgroundColor=none;strokeWidth=1" parent="1" vertex="1">
          <mxGeometry x="870" y="695" width="260" height="150" as="geometry" />
        </mxCell>
        <mxCell id="RtRzZt0xqBWtNR3uWcVC-29" value="&lt;p style=&quot;margin: 0px ; margin-top: 4px ; text-align: center&quot;&gt;&lt;b&gt;FaithPath&lt;/b&gt;&lt;/p&gt;&lt;hr size=&quot;1&quot;&gt;&lt;p style=&quot;margin: 0px ; margin-left: 4px&quot;&gt;- advancement : int&lt;/p&gt;&lt;hr size=&quot;1&quot;&gt;&lt;p style=&quot;margin: 0px ; margin-left: 4px&quot;&gt;+ moveForward(int steps)&lt;/p&gt;&lt;p style=&quot;margin: 0px ; margin-left: 4px&quot;&gt;+ checkVictoryPoints(int oldPosition): int newPoints&lt;/p&gt;&lt;p style=&quot;margin: 0px ; margin-left: 4px&quot;&gt;+ checkPopeSpace(): boolean&lt;/p&gt;&lt;p style=&quot;margin: 0px ; margin-left: 4px&quot;&gt;+ checkVaticanSection() : boolean&lt;/p&gt;" style="verticalAlign=top;align=left;overflow=fill;fontSize=12;fontFamily=Helvetica;html=1;rounded=0;shadow=0;comic=0;labelBackgroundColor=none;strokeWidth=1" parent="1" vertex="1">
          <mxGeometry x="1160" y="695" width="280" height="150" as="geometry" />
        </mxCell>
        <mxCell id="Tt4_UZsse2JY--aP2vom-1" value="&lt;p style=&quot;margin: 0px ; margin-top: 4px ; text-align: center&quot;&gt;&lt;br&gt;&lt;/p&gt;&lt;p style=&quot;margin: 0px ; margin-top: 4px ; text-align: center&quot;&gt;DevCard&lt;/p&gt;&lt;hr size=&quot;1&quot;&gt;&lt;p style=&quot;margin: 0px ; margin-left: 4px&quot;&gt;- color : String&lt;br&gt;- level : int&amp;nbsp;&lt;/p&gt;&lt;p style=&quot;margin: 0px ; margin-left: 4px&quot;&gt;- requires : arrayList&amp;lt;Resource&amp;gt;&lt;/p&gt;&lt;p style=&quot;margin: 0px ; margin-left: 4px&quot;&gt;- produce : arrayList&amp;lt;Resource&amp;gt;&amp;nbsp;&lt;/p&gt;&lt;p style=&quot;margin: 0px ; margin-left: 4px&quot;&gt;- price : arrayList&amp;lt;Resource&amp;gt;&lt;/p&gt;&lt;p style=&quot;margin: 0px ; margin-left: 4px&quot;&gt;- victoryPoint : int&lt;/p&gt;&lt;p style=&quot;margin: 0px ; margin-left: 4px&quot;&gt;- isEnable() : boolean&lt;/p&gt;&lt;p style=&quot;margin: 0px ; margin-left: 4px&quot;&gt;- owner : Player&lt;/p&gt;&lt;hr size=&quot;1&quot;&gt;&lt;p style=&quot;margin: 0px ; margin-left: 4px&quot;&gt;+ setOwner(Player owner)&amp;nbsp;&lt;/p&gt;&lt;p style=&quot;margin: 0px ; margin-left: 4px&quot;&gt;+ getColor() : String&lt;/p&gt;&lt;p style=&quot;margin: 0px ; margin-left: 4px&quot;&gt;+ getLevel() : int&amp;nbsp;&lt;/p&gt;&lt;p style=&quot;margin: 0px ; margin-left: 4px&quot;&gt;+ produce() : &amp;nbsp;arrayList&amp;lt;Resource&amp;gt;()&lt;/p&gt;&lt;p style=&quot;margin: 0px ; margin-left: 4px&quot;&gt;+ canBeUsed : boolean;&lt;/p&gt;&lt;p style=&quot;margin: 0px ; margin-left: 4px&quot;&gt;+ disable() : void&lt;/p&gt;&lt;p style=&quot;margin: 0px ; margin-left: 4px&quot;&gt;+ enable() : void&lt;/p&gt;&lt;p style=&quot;margin: 0px ; margin-left: 4px&quot;&gt;+ canProduce() : boolean&lt;/p&gt;&lt;p style=&quot;margin: 0px ; margin-left: 4px&quot;&gt;&lt;br&gt;&lt;/p&gt;&lt;p style=&quot;margin: 0px ; margin-left: 4px&quot;&gt;&lt;br&gt;&lt;/p&gt;" style="verticalAlign=top;align=left;overflow=fill;fontSize=12;fontFamily=Helvetica;html=1;rounded=0;shadow=0;comic=0;labelBackgroundColor=none;strokeWidth=1" parent="1" vertex="1">
          <mxGeometry x="770" y="940" width="280" height="290" as="geometry" />
        </mxCell>
        <mxCell id="Tt4_UZsse2JY--aP2vom-7" value="0,7" style="text;html=1;strokeColor=none;fillColor=none;align=center;verticalAlign=middle;whiteSpace=wrap;rounded=0;" parent="1" vertex="1">
          <mxGeometry x="910" y="920" width="40" height="20" as="geometry" />
        </mxCell>
        <mxCell id="Tt4_UZsse2JY--aP2vom-8" value="0,1" style="text;html=1;strokeColor=none;fillColor=none;align=center;verticalAlign=middle;whiteSpace=wrap;rounded=0;" parent="1" vertex="1">
          <mxGeometry x="910" y="860" width="40" height="20" as="geometry" />
        </mxCell>
        <mxCell id="Tt4_UZsse2JY--aP2vom-9" value="&lt;p style=&quot;margin: 0px ; margin-top: 4px ; text-align: center&quot;&gt;&lt;i&gt;&amp;lt;&amp;lt;interface&amp;gt;&amp;gt;&amp;nbsp;&lt;/i&gt;&lt;/p&gt;&lt;p style=&quot;margin: 0px ; margin-top: 4px ; text-align: center&quot;&gt;LeaderCard&lt;/p&gt;&lt;hr size=&quot;1&quot;&gt;&lt;p style=&quot;margin: 0px ; margin-left: 4px&quot;&gt;- victoryPoint : int&lt;br&gt;&lt;/p&gt;&lt;p style=&quot;margin: 0px ; margin-left: 4px&quot;&gt;- isEnable() : boolean&lt;/p&gt;&lt;hr size=&quot;1&quot;&gt;&lt;p style=&quot;margin: 0px ; margin-left: 4px&quot;&gt;+ playCard() : void;&lt;br&gt;&lt;/p&gt;&lt;p style=&quot;margin: 0px ; margin-left: 4px&quot;&gt;+ canBePlayed(): boolean;&lt;/p&gt;" style="verticalAlign=top;align=left;overflow=fill;fontSize=12;fontFamily=Helvetica;html=1;rounded=0;shadow=0;comic=0;labelBackgroundColor=none;strokeWidth=1" parent="1" vertex="1">
          <mxGeometry x="1350" y="230" width="280" height="140" as="geometry" />
        </mxCell>
        <mxCell id="Tt4_UZsse2JY--aP2vom-10" value="&lt;p style=&quot;margin: 0px ; margin-top: 4px ; text-align: center&quot;&gt;&lt;b&gt;Discount&lt;/b&gt;&lt;/p&gt;&lt;hr size=&quot;1&quot;&gt;&lt;p style=&quot;margin: 0px ; margin-left: 4px&quot;&gt;- requires : DevCard[2];&lt;/p&gt;&lt;p style=&quot;margin: 0px ; margin-left: 4px&quot;&gt;- discount : Resource&lt;/p&gt;&lt;hr size=&quot;1&quot;&gt;&lt;p style=&quot;margin: 0px ; margin-left: 4px&quot;&gt;&lt;br&gt;&lt;/p&gt;" style="verticalAlign=top;align=left;overflow=fill;fontSize=12;fontFamily=Helvetica;html=1;rounded=0;shadow=0;comic=0;labelBackgroundColor=none;strokeWidth=1" parent="1" vertex="1">
          <mxGeometry x="1110" y="415" width="240" height="85" as="geometry" />
        </mxCell>
        <mxCell id="Tt4_UZsse2JY--aP2vom-13" style="edgeStyle=orthogonalEdgeStyle;rounded=0;orthogonalLoop=1;jettySize=auto;html=1;" parent="1" source="17acba5748e5396b-21" edge="1">
          <mxGeometry relative="1" as="geometry">
            <mxPoint x="690" y="310" as="sourcePoint" />
            <mxPoint x="1350" y="290" as="targetPoint" />
            <Array as="points">
              <mxPoint x="1350" y="290" />
            </Array>
          </mxGeometry>
        </mxCell>
        <mxCell id="Tt4_UZsse2JY--aP2vom-15" value="2" style="text;html=1;strokeColor=none;fillColor=none;align=center;verticalAlign=middle;whiteSpace=wrap;rounded=0;" parent="1" vertex="1">
          <mxGeometry x="1310" y="260" width="40" height="20" as="geometry" />
        </mxCell>
        <mxCell id="Tt4_UZsse2JY--aP2vom-23" value="&lt;p style=&quot;margin: 0px ; margin-top: 4px ; text-align: center&quot;&gt;&lt;b&gt;ExtraDeposit&lt;/b&gt;&lt;/p&gt;&lt;hr size=&quot;1&quot;&gt;&lt;p style=&quot;margin: 0px ; margin-left: 4px&quot;&gt;- requires : Resource&lt;/p&gt;&lt;hr size=&quot;1&quot;&gt;&lt;p style=&quot;margin: 0px ; margin-left: 4px&quot;&gt;&lt;br&gt;&lt;/p&gt;" style="verticalAlign=top;align=left;overflow=fill;fontSize=12;fontFamily=Helvetica;html=1;rounded=0;shadow=0;comic=0;labelBackgroundColor=none;strokeWidth=1" parent="1" vertex="1">
          <mxGeometry x="1360" y="415" width="240" height="75" as="geometry" />
        </mxCell>
        <mxCell id="Tt4_UZsse2JY--aP2vom-26" value="" style="endArrow=block;dashed=1;endFill=0;endSize=12;html=1;exitX=0.543;exitY=0.02;exitDx=0;exitDy=0;exitPerimeter=0;entryX=0.468;entryY=0.997;entryDx=0;entryDy=0;entryPerimeter=0;" parent="1" source="Tt4_UZsse2JY--aP2vom-10" target="Tt4_UZsse2JY--aP2vom-9" edge="1">
          <mxGeometry width="160" relative="1" as="geometry">
            <mxPoint x="1190" y="360" as="sourcePoint" />
            <mxPoint x="1350" y="360" as="targetPoint" />
            <Array as="points">
              <mxPoint x="1240" y="390" />
              <mxPoint x="1481" y="390" />
            </Array>
          </mxGeometry>
        </mxCell>
        <mxCell id="Tt4_UZsse2JY--aP2vom-28" value="" style="endArrow=block;dashed=1;endFill=0;endSize=12;html=1;" parent="1" source="Tt4_UZsse2JY--aP2vom-23" edge="1">
          <mxGeometry width="160" relative="1" as="geometry">
            <mxPoint x="1200.3199999999997" y="426.6999999999998" as="sourcePoint" />
            <mxPoint x="1480" y="370" as="targetPoint" />
            <Array as="points">
              <mxPoint x="1480" y="400" />
            </Array>
          </mxGeometry>
        </mxCell>
        <mxCell id="Tt4_UZsse2JY--aP2vom-29" value="&lt;p style=&quot;margin: 0px ; margin-top: 4px ; text-align: center&quot;&gt;&lt;b&gt;ExtraProd&lt;/b&gt;&lt;/p&gt;&lt;hr size=&quot;1&quot;&gt;&lt;p style=&quot;margin: 0px ; margin-left: 4px&quot;&gt;- requires : String&lt;/p&gt;&lt;p style=&quot;margin: 0px ; margin-left: 4px&quot;&gt;- prodResource: Resource&lt;/p&gt;&lt;hr size=&quot;1&quot;&gt;&lt;p style=&quot;margin: 0px ; margin-left: 4px&quot;&gt;+ use() : void&lt;/p&gt;&lt;p style=&quot;margin: 0px ; margin-left: 4px&quot;&gt;- canProduce(Resource choice) : boolean&lt;/p&gt;" style="verticalAlign=top;align=left;overflow=fill;fontSize=12;fontFamily=Helvetica;html=1;rounded=0;shadow=0;comic=0;labelBackgroundColor=none;strokeWidth=1" parent="1" vertex="1">
          <mxGeometry x="1450" y="510" width="290" height="130" as="geometry" />
        </mxCell>
        <mxCell id="Tt4_UZsse2JY--aP2vom-31" value="" style="endArrow=block;dashed=1;endFill=0;endSize=12;html=1;exitX=0.557;exitY=0.005;exitDx=0;exitDy=0;exitPerimeter=0;" parent="1" source="Tt4_UZsse2JY--aP2vom-29" edge="1">
          <mxGeometry width="160" relative="1" as="geometry">
            <mxPoint x="1490" y="425" as="sourcePoint" />
            <mxPoint x="1480" y="370" as="targetPoint" />
            <Array as="points">
              <mxPoint x="1610" y="400" />
              <mxPoint x="1480" y="400" />
            </Array>
          </mxGeometry>
        </mxCell>
        <mxCell id="Tt4_UZsse2JY--aP2vom-32" value="&lt;p style=&quot;margin: 0px ; margin-top: 4px ; text-align: center&quot;&gt;&lt;b&gt;ChangeResource&lt;/b&gt;&lt;/p&gt;&lt;hr size=&quot;1&quot;&gt;&lt;p style=&quot;margin: 0px ; margin-left: 4px&quot;&gt;- requires : arrayList&amp;lt;DevCards&amp;gt;&lt;/p&gt;&lt;p style=&quot;margin: 0px ; margin-left: 4px&quot;&gt;- prodResource: Resource&lt;/p&gt;&lt;p style=&quot;margin: 0px ; margin-left: 4px&quot;&gt;- change : Resource;&lt;/p&gt;&lt;hr size=&quot;1&quot;&gt;&lt;p style=&quot;margin: 0px ; margin-left: 4px&quot;&gt;+ change(Resource old) : Resource&lt;/p&gt;" style="verticalAlign=top;align=left;overflow=fill;fontSize=12;fontFamily=Helvetica;html=1;rounded=0;shadow=0;comic=0;labelBackgroundColor=none;strokeWidth=1" parent="1" vertex="1">
          <mxGeometry x="1770" y="415" width="290" height="105" as="geometry" />
        </mxCell>
        <mxCell id="Tt4_UZsse2JY--aP2vom-33" value="" style="endArrow=block;dashed=1;endFill=0;endSize=12;html=1;exitX=0.529;exitY=0.012;exitDx=0;exitDy=0;exitPerimeter=0;" parent="1" source="Tt4_UZsse2JY--aP2vom-32" edge="1">
          <mxGeometry width="160" relative="1" as="geometry">
            <mxPoint x="1781.5299999999997" y="415.0050000000001" as="sourcePoint" />
            <mxPoint x="1480" y="369.48" as="targetPoint" />
            <Array as="points">
              <mxPoint x="1923" y="399" />
              <mxPoint x="1782" y="399.48" />
              <mxPoint x="1480" y="399.48" />
            </Array>
          </mxGeometry>
        </mxCell>
        <mxCell id="Tt4_UZsse2JY--aP2vom-41" value="" style="endArrow=block;endFill=1;html=1;edgeStyle=orthogonalEdgeStyle;align=left;verticalAlign=top;entryX=0.5;entryY=0;entryDx=0;entryDy=0;" parent="1" target="RtRzZt0xqBWtNR3uWcVC-29" edge="1">
          <mxGeometry x="-0.8537" y="-15" relative="1" as="geometry">
            <mxPoint x="890" y="615" as="sourcePoint" />
            <mxPoint x="1050" y="615" as="targetPoint" />
            <mxPoint as="offset" />
          </mxGeometry>
        </mxCell>
        <mxCell id="Tt4_UZsse2JY--aP2vom-42" value="1" style="edgeLabel;resizable=0;html=1;align=left;verticalAlign=bottom;" parent="Tt4_UZsse2JY--aP2vom-41" connectable="0" vertex="1">
          <mxGeometry x="-1" relative="1" as="geometry">
            <mxPoint x="390" y="75" as="offset" />
          </mxGeometry>
        </mxCell>
        <mxCell id="Tt4_UZsse2JY--aP2vom-63" value="1" style="edgeLabel;resizable=0;html=1;align=left;verticalAlign=bottom;" parent="Tt4_UZsse2JY--aP2vom-41" connectable="0" vertex="1">
          <mxGeometry x="-1" relative="1" as="geometry">
            <mxPoint x="1320" y="65" as="offset" />
          </mxGeometry>
        </mxCell>
        <mxCell id="Tt4_UZsse2JY--aP2vom-43" value="" style="endArrow=block;endFill=1;html=1;edgeStyle=orthogonalEdgeStyle;align=left;verticalAlign=top;entryX=0.5;entryY=0;entryDx=0;entryDy=0;exitX=-0.006;exitY=0.154;exitDx=0;exitDy=0;exitPerimeter=0;" parent="1" target="RtRzZt0xqBWtNR3uWcVC-20" edge="1">
          <mxGeometry x="-0.8537" y="-15" relative="1" as="geometry">
            <mxPoint x="729.04" y="610.0039999999999" as="sourcePoint" />
            <mxPoint x="940" y="685" as="targetPoint" />
            <Array as="points">
              <mxPoint x="729" y="605" />
              <mxPoint x="385" y="605" />
            </Array>
            <mxPoint as="offset" />
          </mxGeometry>
        </mxCell>
        <mxCell id="Tt4_UZsse2JY--aP2vom-44" value="1,3" style="edgeLabel;resizable=0;html=1;align=left;verticalAlign=bottom;" parent="Tt4_UZsse2JY--aP2vom-43" connectable="0" vertex="1">
          <mxGeometry x="-1" relative="1" as="geometry">
            <mxPoint x="790.96" y="157.5" as="offset" />
          </mxGeometry>
        </mxCell>
        <mxCell id="Tt4_UZsse2JY--aP2vom-45" value="" style="endArrow=block;endFill=1;html=1;edgeStyle=orthogonalEdgeStyle;align=left;verticalAlign=top;exitX=1;exitY=0.5;exitDx=0;exitDy=0;" parent="1" target="RtRzZt0xqBWtNR3uWcVC-28" edge="1">
          <mxGeometry x="-0.8537" y="-15" relative="1" as="geometry">
            <mxPoint x="890" y="619" as="sourcePoint" />
            <mxPoint x="1230" y="705" as="targetPoint" />
            <mxPoint as="offset" />
          </mxGeometry>
        </mxCell>
        <mxCell id="Tt4_UZsse2JY--aP2vom-46" value="1" style="edgeLabel;resizable=0;html=1;align=left;verticalAlign=bottom;" parent="Tt4_UZsse2JY--aP2vom-45" connectable="0" vertex="1">
          <mxGeometry x="-1" relative="1" as="geometry">
            <mxPoint y="-9" as="offset" />
          </mxGeometry>
        </mxCell>
        <mxCell id="Tt4_UZsse2JY--aP2vom-47" value="" style="endArrow=block;endFill=1;html=1;edgeStyle=orthogonalEdgeStyle;align=left;verticalAlign=top;exitX=0;exitY=0.5;exitDx=0;exitDy=0;" parent="1" edge="1">
          <mxGeometry x="-0.8537" y="-15" relative="1" as="geometry">
            <mxPoint x="730" y="619" as="sourcePoint" />
            <mxPoint x="690" y="695" as="targetPoint" />
            <mxPoint as="offset" />
          </mxGeometry>
        </mxCell>
        <mxCell id="Tt4_UZsse2JY--aP2vom-49" value="&lt;p style=&quot;margin: 0px ; margin-top: 4px ; text-align: center&quot;&gt;BasicDevCard&lt;br&gt;&lt;/p&gt;&lt;hr size=&quot;1&quot;&gt;&lt;p style=&quot;margin: 0px ; margin-left: 4px&quot;&gt;&lt;br&gt;&lt;/p&gt;&lt;hr size=&quot;1&quot;&gt;&lt;p style=&quot;margin: 0px ; margin-left: 4px&quot;&gt;+ use() :&amp;nbsp; void&lt;/p&gt;&lt;p style=&quot;margin: 0px ; margin-left: 4px&quot;&gt;- canBeUsed (Resource res1, Resource res2): boolean;&lt;/p&gt;&lt;p style=&quot;margin: 0px ; margin-left: 4px&quot;&gt;&lt;br&gt;&lt;/p&gt;&lt;p style=&quot;margin: 0px ; margin-left: 4px&quot;&gt;&lt;br&gt;&lt;/p&gt;" style="verticalAlign=top;align=left;overflow=fill;fontSize=12;fontFamily=Helvetica;html=1;rounded=0;shadow=0;comic=0;labelBackgroundColor=none;strokeWidth=1" parent="1" vertex="1">
          <mxGeometry x="1450" y="940" width="340" height="100" as="geometry" />
        </mxCell>
        <mxCell id="Tt4_UZsse2JY--aP2vom-53" value="Table" style="swimlane;fontStyle=1;align=center;verticalAlign=top;childLayout=stackLayout;horizontal=1;startSize=26;horizontalStack=0;resizeParent=1;resizeParentMax=0;resizeLast=0;collapsible=1;marginBottom=0;" parent="1" vertex="1">
          <mxGeometry x="2220" y="600" width="250" height="112" as="geometry" />
        </mxCell>
        <mxCell id="Tt4_UZsse2JY--aP2vom-68" value="- avaibleDev() : DevCards[4][3][4]" style="text;html=1;align=center;verticalAlign=middle;resizable=0;points=[];autosize=1;" parent="Tt4_UZsse2JY--aP2vom-53" vertex="1">
          <mxGeometry y="26" width="250" height="20" as="geometry" />
        </mxCell>
        <mxCell id="Tt4_UZsse2JY--aP2vom-55" value="" style="line;strokeWidth=1;fillColor=none;align=left;verticalAlign=middle;spacingTop=-1;spacingLeft=3;spacingRight=3;rotatable=0;labelPosition=right;points=[];portConstraint=eastwest;" parent="Tt4_UZsse2JY--aP2vom-53" vertex="1">
          <mxGeometry y="46" width="250" height="6" as="geometry" />
        </mxCell>
        <mxCell id="Tt4_UZsse2JY--aP2vom-65" value="+ buyDev( String Color, int level ) : DevCard" style="text;html=1;align=center;verticalAlign=middle;resizable=0;points=[];autosize=1;" parent="Tt4_UZsse2JY--aP2vom-53" vertex="1">
          <mxGeometry y="52" width="250" height="20" as="geometry" />
        </mxCell>
        <mxCell id="Tt4_UZsse2JY--aP2vom-69" value="+ sortDev() : DevCards[4][3]" style="text;html=1;align=center;verticalAlign=middle;resizable=0;points=[];autosize=1;" parent="Tt4_UZsse2JY--aP2vom-53" vertex="1">
          <mxGeometry y="72" width="250" height="20" as="geometry" />
        </mxCell>
        <mxCell id="Tt4_UZsse2JY--aP2vom-71" value="+ getTop() : DevCards[4][3]" style="text;html=1;align=center;verticalAlign=middle;resizable=0;points=[];autosize=1;" parent="Tt4_UZsse2JY--aP2vom-53" vertex="1">
          <mxGeometry y="92" width="250" height="20" as="geometry" />
        </mxCell>
        <mxCell id="Tt4_UZsse2JY--aP2vom-57" value="" style="endArrow=block;endFill=1;html=1;edgeStyle=orthogonalEdgeStyle;align=left;verticalAlign=top;" parent="1" edge="1">
          <mxGeometry x="-0.8537" y="-15" relative="1" as="geometry">
            <mxPoint x="2220" y="680" as="sourcePoint" />
            <mxPoint x="676" y="525" as="targetPoint" />
            <Array as="points">
              <mxPoint x="1420" y="680" />
              <mxPoint x="1420" y="525" />
            </Array>
            <mxPoint as="offset" />
          </mxGeometry>
        </mxCell>
        <mxCell id="Tt4_UZsse2JY--aP2vom-62" value="1,4" style="text;align=center;fontStyle=1;verticalAlign=middle;spacingLeft=3;spacingRight=3;strokeColor=none;rotatable=0;points=[[0,0.5],[1,0.5]];portConstraint=eastwest;" parent="1" vertex="1">
          <mxGeometry x="1110" y="530" width="80" height="26" as="geometry" />
        </mxCell>
        <mxCell id="Tt4_UZsse2JY--aP2vom-64" value="&lt;p style=&quot;margin: 0px ; margin-top: 4px ; text-align: center&quot;&gt;&lt;b&gt;Market&lt;/b&gt;&lt;/p&gt;&lt;hr size=&quot;1&quot;&gt;&lt;p style=&quot;margin: 0px ; margin-left: 4px&quot;&gt;- actualSituation : Resource[4][3]&amp;nbsp;&lt;/p&gt;&lt;p style=&quot;margin: 0px ; margin-left: 4px&quot;&gt;- freeOne: Resource&lt;/p&gt;&lt;p style=&quot;margin: 0px ; margin-left: 4px&quot;&gt;- change : Resource;&lt;/p&gt;&lt;hr size=&quot;1&quot;&gt;&lt;p style=&quot;margin: 0px ; margin-left: 4px&quot;&gt;+ getColumn ( int col) : arrayList&amp;lt;Resource&amp;gt;&amp;nbsp;&lt;/p&gt;&lt;p style=&quot;margin: 0px ; margin-left: 4px&quot;&gt;+ getRow (int row) : arrayList&amp;lt;Resource&amp;gt;&lt;/p&gt;&lt;p style=&quot;margin: 0px ; margin-left: 4px&quot;&gt;+ getFree() : resource&lt;/p&gt;&lt;p style=&quot;margin: 0px ; margin-left: 4px&quot;&gt;+ getMarket() : Resource[4][3]&lt;/p&gt;" style="verticalAlign=top;align=left;overflow=fill;fontSize=12;fontFamily=Helvetica;html=1;rounded=0;shadow=0;comic=0;labelBackgroundColor=none;strokeWidth=1" parent="1" vertex="1">
          <mxGeometry x="1820" y="770" width="370" height="160" as="geometry" />
        </mxCell>
        <mxCell id="Tt4_UZsse2JY--aP2vom-74" value="0,1" style="endArrow=block;endFill=1;html=1;edgeStyle=orthogonalEdgeStyle;align=left;verticalAlign=top;exitX=0.332;exitY=1.05;exitDx=0;exitDy=0;exitPerimeter=0;entryX=0.996;entryY=0.619;entryDx=0;entryDy=0;entryPerimeter=0;" parent="1" source="Tt4_UZsse2JY--aP2vom-71" target="Tt4_UZsse2JY--aP2vom-1" edge="1">
          <mxGeometry x="-0.9913" y="17" relative="1" as="geometry">
            <mxPoint x="1050" y="1110" as="sourcePoint" />
            <mxPoint x="1060" y="1070" as="targetPoint" />
            <Array as="points">
              <mxPoint x="2260" y="713" />
              <mxPoint x="2260" y="1070" />
              <mxPoint x="1110" y="1070" />
              <mxPoint x="1110" y="1120" />
            </Array>
            <mxPoint as="offset" />
          </mxGeometry>
        </mxCell>
        <mxCell id="Tt4_UZsse2JY--aP2vom-75" value="1" style="edgeLabel;resizable=0;html=1;align=left;verticalAlign=bottom;" parent="Tt4_UZsse2JY--aP2vom-74" connectable="0" vertex="1">
          <mxGeometry x="-1" relative="1" as="geometry">
            <mxPoint x="-53" y="17" as="offset" />
          </mxGeometry>
        </mxCell>
        <mxCell id="Tt4_UZsse2JY--aP2vom-76" value="0,48" style="text;html=1;strokeColor=none;fillColor=none;align=center;verticalAlign=middle;whiteSpace=wrap;rounded=0;" parent="1" vertex="1">
          <mxGeometry x="1050" y="1050" width="40" height="20" as="geometry" />
        </mxCell>
        <mxCell id="Tt4_UZsse2JY--aP2vom-77" value="" style="endArrow=block;endFill=1;html=1;edgeStyle=orthogonalEdgeStyle;align=left;verticalAlign=top;entryX=0.446;entryY=-0.025;entryDx=0;entryDy=0;entryPerimeter=0;exitX=0.08;exitY=1.05;exitDx=0;exitDy=0;exitPerimeter=0;" parent="1" edge="1">
          <mxGeometry x="-0.7597" y="30" relative="1" as="geometry">
            <mxPoint x="2245" y="712" as="sourcePoint" />
            <mxPoint x="1990.02" y="765" as="targetPoint" />
            <Array as="points">
              <mxPoint x="2245" y="729" />
              <mxPoint x="1990" y="729" />
            </Array>
            <mxPoint as="offset" />
          </mxGeometry>
        </mxCell>
        <mxCell id="Tt4_UZsse2JY--aP2vom-78" value="1" style="edgeLabel;resizable=0;html=1;align=left;verticalAlign=bottom;" parent="Tt4_UZsse2JY--aP2vom-77" connectable="0" vertex="1">
          <mxGeometry x="-1" relative="1" as="geometry">
            <mxPoint x="-250" y="50" as="offset" />
          </mxGeometry>
        </mxCell>
        <mxCell id="Tt4_UZsse2JY--aP2vom-81" style="edgeStyle=orthogonalEdgeStyle;rounded=0;orthogonalLoop=1;jettySize=auto;html=1;exitX=0.5;exitY=0;exitDx=0;exitDy=0;entryX=0.75;entryY=0;entryDx=0;entryDy=0;" parent="1" edge="1">
          <mxGeometry relative="1" as="geometry">
            <mxPoint x="730" y="470" as="sourcePoint" />
            <mxPoint x="740" y="470" as="targetPoint" />
          </mxGeometry>
        </mxCell>
        <mxCell id="Tt4_UZsse2JY--aP2vom-82" value="Riserva omessa perché le risorse vengono prese direttamente dal mercato" style="text;align=center;fontStyle=1;verticalAlign=middle;spacingLeft=3;spacingRight=3;strokeColor=none;rotatable=0;points=[[0,0.5],[1,0.5]];portConstraint=eastwest;" parent="1" vertex="1">
          <mxGeometry x="2130" y="540" width="270" height="86" as="geometry" />
        </mxCell>
        <mxCell id="Tt4_UZsse2JY--aP2vom-84" value="&lt;p style=&quot;margin: 0px ; margin-top: 4px ; text-align: center&quot;&gt;&lt;b&gt;TempBox&lt;/b&gt;&lt;/p&gt;&lt;hr size=&quot;1&quot;&gt;&lt;p style=&quot;margin: 0px ; margin-left: 4px&quot;&gt;&lt;br&gt;&lt;/p&gt;&lt;hr size=&quot;1&quot;&gt;&lt;p style=&quot;margin: 0px ; margin-left: 4px&quot;&gt;+ addResources(Resource): void&lt;/p&gt;&lt;p style=&quot;margin: 0px ; margin-left: 4px&quot;&gt;+ endTurn() : void&lt;/p&gt;" style="verticalAlign=top;align=left;overflow=fill;fontSize=12;fontFamily=Helvetica;html=1;rounded=0;shadow=0;comic=0;labelBackgroundColor=none;strokeWidth=1" parent="1" vertex="1">
          <mxGeometry x="190" y="1170" width="310" height="120" as="geometry" />
        </mxCell>
        <mxCell id="Tt4_UZsse2JY--aP2vom-85" value="" style="endArrow=block;endFill=1;html=1;edgeStyle=orthogonalEdgeStyle;align=left;verticalAlign=top;entryX=0.097;entryY=-0.008;entryDx=0;entryDy=0;exitX=-0.006;exitY=0.154;exitDx=0;exitDy=0;exitPerimeter=0;entryPerimeter=0;" parent="1" target="Tt4_UZsse2JY--aP2vom-84" edge="1">
          <mxGeometry x="-0.8537" y="-15" relative="1" as="geometry">
            <mxPoint x="730" y="620.0039999999999" as="sourcePoint" />
            <mxPoint x="385.96000000000004" y="705" as="targetPoint" />
            <Array as="points">
              <mxPoint x="730" y="600" />
              <mxPoint x="220" y="600" />
            </Array>
            <mxPoint as="offset" />
          </mxGeometry>
        </mxCell>
        <mxCell id="Tt4_UZsse2JY--aP2vom-87" style="edgeStyle=orthogonalEdgeStyle;rounded=0;orthogonalLoop=1;jettySize=auto;html=1;exitX=0.274;exitY=-0.025;exitDx=0;exitDy=0;exitPerimeter=0;" parent="1" source="Tt4_UZsse2JY--aP2vom-84" edge="1">
          <mxGeometry relative="1" as="geometry">
            <Array as="points">
              <mxPoint x="275" y="1040" />
            </Array>
            <mxPoint x="275" y="1160" as="sourcePoint" />
            <mxPoint x="310" y="1040" as="targetPoint" />
          </mxGeometry>
        </mxCell>
        <mxCell id="w-K9gkln1mTXEIpbY9fb-2" value="&lt;font style=&quot;font-size: 24px&quot;&gt;Model&lt;/font&gt;" style="text;html=1;strokeColor=none;fillColor=none;align=left;verticalAlign=top;spacingLeft=4;spacingRight=4;whiteSpace=wrap;overflow=hidden;rotatable=0;points=[[0,0.5],[1,0.5]];portConstraint=eastwest;" parent="1" vertex="1">
          <mxGeometry x="70" y="70" width="100" height="37" as="geometry" />
        </mxCell>
        <mxCell id="w-K9gkln1mTXEIpbY9fb-5" value="&lt;p style=&quot;margin: 0px ; margin-top: 4px ; text-align: center&quot;&gt;Interface&lt;br&gt;&lt;/p&gt;&lt;p style=&quot;margin: 0px ; margin-top: 4px ; text-align: center&quot;&gt;ExtraProducer&lt;/p&gt;&lt;hr size=&quot;1&quot;&gt;&lt;p style=&quot;margin: 0px ; margin-left: 4px&quot;&gt;- extraProdSlots:&amp;nbsp;&lt;/p&gt;&lt;hr size=&quot;1&quot;&gt;&lt;p style=&quot;margin: 0px ; margin-left: 4px&quot;&gt;+ use() : &amp;nbsp;void&lt;/p&gt;&lt;p style=&quot;margin: 0px ; margin-left: 4px&quot;&gt;&lt;br&gt;&lt;/p&gt;&lt;p style=&quot;margin: 0px ; margin-left: 4px&quot;&gt;&lt;br&gt;&lt;/p&gt;&lt;p style=&quot;margin: 0px ; margin-left: 4px&quot;&gt;&lt;br&gt;&lt;/p&gt;&lt;p style=&quot;margin: 0px ; margin-left: 4px&quot;&gt;&lt;br&gt;&lt;/p&gt;" style="verticalAlign=top;align=left;overflow=fill;fontSize=12;fontFamily=Helvetica;html=1;rounded=0;shadow=0;comic=0;labelBackgroundColor=none;strokeWidth=1" parent="1" vertex="1">
          <mxGeometry x="1470" y="770" width="340" height="130" as="geometry" />
        </mxCell>
        <mxCell id="VZWiPymxHDZce6uz7Lrc-6" value="return" style="html=1;verticalAlign=bottom;endArrow=open;dashed=1;endSize=8;" parent="1" edge="1">
          <mxGeometry relative="1" as="geometry">
            <mxPoint x="1280" y="800" as="sourcePoint" />
            <mxPoint x="1200" y="800" as="targetPoint" />
          </mxGeometry>
        </mxCell>
        <mxCell id="VZWiPymxHDZce6uz7Lrc-8" value="Use" style="endArrow=open;endSize=12;dashed=1;html=1;exitX=0.5;exitY=1;exitDx=0;exitDy=0;entryX=0.5;entryY=0;entryDx=0;entryDy=0;" parent="1" source="Tt4_UZsse2JY--aP2vom-29" target="w-K9gkln1mTXEIpbY9fb-5" edge="1">
          <mxGeometry width="160" relative="1" as="geometry">
            <mxPoint x="1150" y="810" as="sourcePoint" />
            <mxPoint x="1310" y="810" as="targetPoint" />
          </mxGeometry>
        </mxCell>
        <mxCell id="8uedm5YtxWgwwN68aBkR-1" value="Use" style="endArrow=open;endSize=12;dashed=1;html=1;exitX=0.53;exitY=0.009;exitDx=0;exitDy=0;entryX=0.5;entryY=1;entryDx=0;entryDy=0;exitPerimeter=0;" edge="1" parent="1" source="Tt4_UZsse2JY--aP2vom-49" target="w-K9gkln1mTXEIpbY9fb-5">
          <mxGeometry width="160" relative="1" as="geometry">
            <mxPoint x="1470" y="970" as="sourcePoint" />
            <mxPoint x="1650" y="870" as="targetPoint" />
          </mxGeometry>
        </mxCell>
      </root>
    </mxGraphModel>
  </diagram>
  <diagram id="XjBvma8TKEidSXA-A0vw" name="Pagina-2">
    <mxGraphModel dx="7158" dy="1299" grid="1" gridSize="10" guides="1" tooltips="1" connect="1" arrows="1" fold="1" page="1" pageScale="1" pageWidth="827" pageHeight="1169" math="0" shadow="0">
      <root>
        <mxCell id="zuPwHXy1TFyjWQxAL-yT-0" />
        <mxCell id="zuPwHXy1TFyjWQxAL-yT-1" parent="zuPwHXy1TFyjWQxAL-yT-0" />
        <mxCell id="zuPwHXy1TFyjWQxAL-yT-2" value="" style="shape=folder;fontStyle=1;spacingTop=10;tabWidth=40;tabHeight=50;tabPosition=left;html=1;fillColor=none;" vertex="1" parent="zuPwHXy1TFyjWQxAL-yT-1">
          <mxGeometry x="-1270" y="1480" width="2480" height="1780" as="geometry" />
        </mxCell>
        <mxCell id="zuPwHXy1TFyjWQxAL-yT-3" value="CONTROLLER" style="text;align=center;fontStyle=1;verticalAlign=middle;spacingLeft=3;spacingRight=3;strokeColor=none;rotatable=0;points=[[0,0.5],[1,0.5]];portConstraint=eastwest;fillColor=none;" vertex="1" parent="zuPwHXy1TFyjWQxAL-yT-1">
          <mxGeometry x="-1261" y="1490" width="160" height="26" as="geometry" />
        </mxCell>
        <mxCell id="zuPwHXy1TFyjWQxAL-yT-4" value="Game" style="swimlane;fontStyle=1;align=center;verticalAlign=top;childLayout=stackLayout;horizontal=1;startSize=26;horizontalStack=0;resizeParent=1;resizeParentMax=0;resizeLast=0;collapsible=1;marginBottom=0;fillColor=none;" vertex="1" parent="zuPwHXy1TFyjWQxAL-yT-1">
          <mxGeometry x="182" y="1990" width="410" height="276" as="geometry" />
        </mxCell>
        <mxCell id="zuPwHXy1TFyjWQxAL-yT-5" value="- playerList ArrayList&lt;Player&gt;&#xa;- gameTable Table&#xa;- turn : int&#xa;- currPlayer Player&#xa;- lastTurn : boolean&#xa;- maxVictoryPoints : int&#xa;&#xa;" style="text;strokeColor=none;fillColor=none;align=left;verticalAlign=top;spacingLeft=4;spacingRight=4;overflow=hidden;rotatable=0;points=[[0,0.5],[1,0.5]];portConstraint=eastwest;" vertex="1" parent="zuPwHXy1TFyjWQxAL-yT-4">
          <mxGeometry y="26" width="410" height="114" as="geometry" />
        </mxCell>
        <mxCell id="zuPwHXy1TFyjWQxAL-yT-6" value="" style="line;strokeWidth=1;fillColor=none;align=left;verticalAlign=middle;spacingTop=-1;spacingLeft=3;spacingRight=3;rotatable=0;labelPosition=right;points=[];portConstraint=eastwest;" vertex="1" parent="zuPwHXy1TFyjWQxAL-yT-4">
          <mxGeometry y="140" width="410" height="8" as="geometry" />
        </mxCell>
        <mxCell id="zuPwHXy1TFyjWQxAL-yT-7" value="- nextPlayer(): void&#xa;- endGame() : void&#xa;- getWinner () : Player&#xa;- chooseCard () : void&#xa;- chooseResources () : void" style="text;strokeColor=none;fillColor=none;align=left;verticalAlign=top;spacingLeft=4;spacingRight=4;overflow=hidden;rotatable=0;points=[[0,0.5],[1,0.5]];portConstraint=eastwest;" vertex="1" parent="zuPwHXy1TFyjWQxAL-yT-4">
          <mxGeometry y="148" width="410" height="128" as="geometry" />
        </mxCell>
        <mxCell id="zuPwHXy1TFyjWQxAL-yT-8" value="Start" style="swimlane;fontStyle=1;align=center;verticalAlign=top;childLayout=stackLayout;horizontal=1;startSize=26;horizontalStack=0;resizeParent=1;resizeParentMax=0;resizeLast=0;collapsible=1;marginBottom=0;fillColor=none;" vertex="1" parent="zuPwHXy1TFyjWQxAL-yT-1">
          <mxGeometry x="-709" y="1930" width="520" height="114" as="geometry" />
        </mxCell>
        <mxCell id="zuPwHXy1TFyjWQxAL-yT-9" value="" style="line;strokeWidth=1;fillColor=none;align=left;verticalAlign=middle;spacingTop=-1;spacingLeft=3;spacingRight=3;rotatable=0;labelPosition=right;points=[];portConstraint=eastwest;" vertex="1" parent="zuPwHXy1TFyjWQxAL-yT-8">
          <mxGeometry y="26" width="520" height="8" as="geometry" />
        </mxCell>
        <mxCell id="zuPwHXy1TFyjWQxAL-yT-10" value="- selectInterface() : void&#xa;- addPlayer (String) : void&#xa;- startGame () : void&#xa;- setGame () : void&#xa;&#xa;" style="text;strokeColor=none;fillColor=none;align=left;verticalAlign=top;spacingLeft=4;spacingRight=4;overflow=hidden;rotatable=0;points=[[0,0.5],[1,0.5]];portConstraint=eastwest;" vertex="1" parent="zuPwHXy1TFyjWQxAL-yT-8">
          <mxGeometry y="34" width="520" height="80" as="geometry" />
        </mxCell>
        <mxCell id="zuPwHXy1TFyjWQxAL-yT-11" value="Turn" style="swimlane;fontStyle=1;align=center;verticalAlign=top;childLayout=stackLayout;horizontal=1;startSize=26;horizontalStack=0;resizeParent=1;resizeParentMax=0;resizeLast=0;collapsible=1;marginBottom=0;" vertex="1" parent="zuPwHXy1TFyjWQxAL-yT-1">
          <mxGeometry x="-559" y="2110" width="360" height="110" as="geometry" />
        </mxCell>
        <mxCell id="zuPwHXy1TFyjWQxAL-yT-12" value="" style="line;strokeWidth=1;fillColor=none;align=left;verticalAlign=middle;spacingTop=-1;spacingLeft=3;spacingRight=3;rotatable=0;labelPosition=right;points=[];portConstraint=eastwest;" vertex="1" parent="zuPwHXy1TFyjWQxAL-yT-11">
          <mxGeometry y="26" width="360" height="8" as="geometry" />
        </mxCell>
        <mxCell id="zuPwHXy1TFyjWQxAL-yT-13" value="- chooseAction() : void&#xa;- takeResources() : void&#xa;- buyDevCard () : void&#xa;- activateProd () : void" style="text;strokeColor=none;fillColor=none;align=left;verticalAlign=top;spacingLeft=4;spacingRight=4;overflow=hidden;rotatable=0;points=[[0,0.5],[1,0.5]];portConstraint=eastwest;" vertex="1" parent="zuPwHXy1TFyjWQxAL-yT-11">
          <mxGeometry y="34" width="360" height="76" as="geometry" />
        </mxCell>
        <mxCell id="zuPwHXy1TFyjWQxAL-yT-14" value="Extends" style="endArrow=block;endSize=16;endFill=0;html=1;entryX=0.612;entryY=1.025;entryDx=0;entryDy=0;entryPerimeter=0;exitX=0.492;exitY=0.001;exitDx=0;exitDy=0;exitPerimeter=0;" edge="1" parent="zuPwHXy1TFyjWQxAL-yT-1" source="zuPwHXy1TFyjWQxAL-yT-15" target="zuPwHXy1TFyjWQxAL-yT-7">
          <mxGeometry width="160" relative="1" as="geometry">
            <mxPoint x="613.1737451737454" y="2520" as="sourcePoint" />
            <mxPoint x="591" y="2370" as="targetPoint" />
          </mxGeometry>
        </mxCell>
        <mxCell id="zuPwHXy1TFyjWQxAL-yT-15" value="SinglePlayerGame" style="swimlane;fontStyle=1;align=center;verticalAlign=top;childLayout=stackLayout;horizontal=1;startSize=26;horizontalStack=0;resizeParent=1;resizeParentMax=0;resizeLast=0;collapsible=1;marginBottom=0;fillColor=none;" vertex="1" parent="zuPwHXy1TFyjWQxAL-yT-1">
          <mxGeometry x="231" y="2400" width="410" height="276" as="geometry" />
        </mxCell>
        <mxCell id="zuPwHXy1TFyjWQxAL-yT-16" value="- tokenList ArrayList&lt;Token&gt;&#xa;- lorenzoPath faithPath&#xa;- &#xa;" style="text;strokeColor=none;fillColor=none;align=left;verticalAlign=top;spacingLeft=4;spacingRight=4;overflow=hidden;rotatable=0;points=[[0,0.5],[1,0.5]];portConstraint=eastwest;" vertex="1" parent="zuPwHXy1TFyjWQxAL-yT-15">
          <mxGeometry y="26" width="410" height="114" as="geometry" />
        </mxCell>
        <mxCell id="zuPwHXy1TFyjWQxAL-yT-17" value="" style="line;strokeWidth=1;fillColor=none;align=left;verticalAlign=middle;spacingTop=-1;spacingLeft=3;spacingRight=3;rotatable=0;labelPosition=right;points=[];portConstraint=eastwest;" vertex="1" parent="zuPwHXy1TFyjWQxAL-yT-15">
          <mxGeometry y="140" width="410" height="8" as="geometry" />
        </mxCell>
        <mxCell id="zuPwHXy1TFyjWQxAL-yT-18" value="- nextPlayer(): void&#xa;- endGame() : void&#xa;- showVictoryPoints (int) : void" style="text;strokeColor=none;fillColor=none;align=left;verticalAlign=top;spacingLeft=4;spacingRight=4;overflow=hidden;rotatable=0;points=[[0,0.5],[1,0.5]];portConstraint=eastwest;" vertex="1" parent="zuPwHXy1TFyjWQxAL-yT-15">
          <mxGeometry y="148" width="410" height="128" as="geometry" />
        </mxCell>
        <mxCell id="zuPwHXy1TFyjWQxAL-yT-19" value="dispatch" style="html=1;verticalAlign=bottom;endArrow=block;entryX=-0.009;entryY=0.061;entryDx=0;entryDy=0;entryPerimeter=0;" edge="1" parent="zuPwHXy1TFyjWQxAL-yT-1" source="zuPwHXy1TFyjWQxAL-yT-10" target="zuPwHXy1TFyjWQxAL-yT-4">
          <mxGeometry width="80" relative="1" as="geometry">
            <mxPoint x="-179" y="2010" as="sourcePoint" />
            <mxPoint x="-99" y="2010" as="targetPoint" />
          </mxGeometry>
        </mxCell>
        <mxCell id="zuPwHXy1TFyjWQxAL-yT-20" value="dispatch" style="html=1;verticalAlign=bottom;endArrow=block;entryX=1.002;entryY=0.128;entryDx=0;entryDy=0;entryPerimeter=0;exitX=0.002;exitY=0.904;exitDx=0;exitDy=0;exitPerimeter=0;" edge="1" parent="zuPwHXy1TFyjWQxAL-yT-1" source="zuPwHXy1TFyjWQxAL-yT-5" target="zuPwHXy1TFyjWQxAL-yT-11">
          <mxGeometry width="80" relative="1" as="geometry">
            <mxPoint x="31" y="2210" as="sourcePoint" />
            <mxPoint x="111" y="2210" as="targetPoint" />
          </mxGeometry>
        </mxCell>
        <mxCell id="zuPwHXy1TFyjWQxAL-yT-21" value="" style="edgeStyle=orthogonalEdgeStyle;rounded=0;orthogonalLoop=1;jettySize=auto;html=1;" edge="1" parent="zuPwHXy1TFyjWQxAL-yT-1" source="zuPwHXy1TFyjWQxAL-yT-22" target="zuPwHXy1TFyjWQxAL-yT-35">
          <mxGeometry relative="1" as="geometry" />
        </mxCell>
        <mxCell id="zuPwHXy1TFyjWQxAL-yT-22" value="Actor" style="shape=umlActor;verticalLabelPosition=bottom;verticalAlign=top;html=1;" vertex="1" parent="zuPwHXy1TFyjWQxAL-yT-1">
          <mxGeometry x="-811" y="2093" width="90" height="220" as="geometry" />
        </mxCell>
        <mxCell id="zuPwHXy1TFyjWQxAL-yT-23" value="&lt;p style=&quot;margin: 0px ; margin-top: 4px ; text-align: center&quot;&gt;&lt;i&gt;&amp;lt;&amp;lt;Interface&amp;gt;&amp;gt;&lt;/i&gt;&lt;br&gt;&lt;b&gt;Token&lt;/b&gt;&lt;/p&gt;&lt;hr size=&quot;1&quot;&gt;&lt;p style=&quot;margin: 0px ; margin-left: 4px&quot;&gt;+ field1: Type&lt;br&gt;+ field2: Type&lt;/p&gt;&lt;hr size=&quot;1&quot;&gt;&lt;p style=&quot;margin: 0px ; margin-left: 4px&quot;&gt;- activateEffect () : void&lt;/p&gt;" style="verticalAlign=top;align=left;overflow=fill;fontSize=12;fontFamily=Helvetica;html=1;" vertex="1" parent="zuPwHXy1TFyjWQxAL-yT-1">
          <mxGeometry x="-289" y="2390" width="287" height="212" as="geometry" />
        </mxCell>
        <mxCell id="zuPwHXy1TFyjWQxAL-yT-24" value="DiscardCards" style="swimlane;fontStyle=1;align=center;verticalAlign=top;childLayout=stackLayout;horizontal=1;startSize=26;horizontalStack=0;resizeParent=1;resizeParentMax=0;resizeLast=0;collapsible=1;marginBottom=0;" vertex="1" parent="zuPwHXy1TFyjWQxAL-yT-1">
          <mxGeometry x="-429" y="2760" width="160" height="60" as="geometry" />
        </mxCell>
        <mxCell id="zuPwHXy1TFyjWQxAL-yT-25" value="- color : String" style="text;strokeColor=none;fillColor=none;align=left;verticalAlign=top;spacingLeft=4;spacingRight=4;overflow=hidden;rotatable=0;points=[[0,0.5],[1,0.5]];portConstraint=eastwest;" vertex="1" parent="zuPwHXy1TFyjWQxAL-yT-24">
          <mxGeometry y="26" width="160" height="26" as="geometry" />
        </mxCell>
        <mxCell id="zuPwHXy1TFyjWQxAL-yT-26" value="" style="line;strokeWidth=1;fillColor=none;align=left;verticalAlign=middle;spacingTop=-1;spacingLeft=3;spacingRight=3;rotatable=0;labelPosition=right;points=[];portConstraint=eastwest;" vertex="1" parent="zuPwHXy1TFyjWQxAL-yT-24">
          <mxGeometry y="52" width="160" height="8" as="geometry" />
        </mxCell>
        <mxCell id="zuPwHXy1TFyjWQxAL-yT-27" value="" style="endArrow=block;dashed=1;endFill=0;endSize=12;html=1;exitX=0.5;exitY=0;exitDx=0;exitDy=0;entryX=-0.01;entryY=0.67;entryDx=0;entryDy=0;entryPerimeter=0;" edge="1" parent="zuPwHXy1TFyjWQxAL-yT-1" source="zuPwHXy1TFyjWQxAL-yT-24" target="zuPwHXy1TFyjWQxAL-yT-23">
          <mxGeometry width="160" relative="1" as="geometry">
            <mxPoint x="-449" y="2810" as="sourcePoint" />
            <mxPoint x="-289" y="2810" as="targetPoint" />
            <Array as="points">
              <mxPoint x="-349" y="2530" />
            </Array>
          </mxGeometry>
        </mxCell>
        <mxCell id="zuPwHXy1TFyjWQxAL-yT-28" value="Move2" style="swimlane;fontStyle=1;align=center;verticalAlign=top;childLayout=stackLayout;horizontal=1;startSize=26;horizontalStack=0;resizeParent=1;resizeParentMax=0;resizeLast=0;collapsible=1;marginBottom=0;" vertex="1" parent="zuPwHXy1TFyjWQxAL-yT-1">
          <mxGeometry x="-209" y="2760" width="160" height="34" as="geometry" />
        </mxCell>
        <mxCell id="zuPwHXy1TFyjWQxAL-yT-29" value="" style="line;strokeWidth=1;fillColor=none;align=left;verticalAlign=middle;spacingTop=-1;spacingLeft=3;spacingRight=3;rotatable=0;labelPosition=right;points=[];portConstraint=eastwest;" vertex="1" parent="zuPwHXy1TFyjWQxAL-yT-28">
          <mxGeometry y="26" width="160" height="8" as="geometry" />
        </mxCell>
        <mxCell id="zuPwHXy1TFyjWQxAL-yT-30" value="Move1" style="swimlane;fontStyle=1;align=center;verticalAlign=top;childLayout=stackLayout;horizontal=1;startSize=26;horizontalStack=0;resizeParent=1;resizeParentMax=0;resizeLast=0;collapsible=1;marginBottom=0;" vertex="1" parent="zuPwHXy1TFyjWQxAL-yT-1">
          <mxGeometry x="11" y="2760" width="160" height="34" as="geometry" />
        </mxCell>
        <mxCell id="zuPwHXy1TFyjWQxAL-yT-31" value="" style="line;strokeWidth=1;fillColor=none;align=left;verticalAlign=middle;spacingTop=-1;spacingLeft=3;spacingRight=3;rotatable=0;labelPosition=right;points=[];portConstraint=eastwest;" vertex="1" parent="zuPwHXy1TFyjWQxAL-yT-30">
          <mxGeometry y="26" width="160" height="8" as="geometry" />
        </mxCell>
        <mxCell id="zuPwHXy1TFyjWQxAL-yT-32" value="" style="endArrow=block;dashed=1;endFill=0;endSize=12;html=1;exitX=0.5;exitY=0;exitDx=0;exitDy=0;" edge="1" parent="zuPwHXy1TFyjWQxAL-yT-1" source="zuPwHXy1TFyjWQxAL-yT-28">
          <mxGeometry width="160" relative="1" as="geometry">
            <mxPoint x="-139" y="2850" as="sourcePoint" />
            <mxPoint x="-129" y="2600" as="targetPoint" />
          </mxGeometry>
        </mxCell>
        <mxCell id="zuPwHXy1TFyjWQxAL-yT-33" value="" style="endArrow=block;dashed=1;endFill=0;endSize=12;html=1;exitX=0.5;exitY=0;exitDx=0;exitDy=0;entryX=1.005;entryY=0.649;entryDx=0;entryDy=0;entryPerimeter=0;" edge="1" parent="zuPwHXy1TFyjWQxAL-yT-1" source="zuPwHXy1TFyjWQxAL-yT-30" target="zuPwHXy1TFyjWQxAL-yT-23">
          <mxGeometry width="160" relative="1" as="geometry">
            <mxPoint x="121" y="2830" as="sourcePoint" />
            <mxPoint x="281" y="2830" as="targetPoint" />
            <Array as="points">
              <mxPoint x="91" y="2528" />
            </Array>
          </mxGeometry>
        </mxCell>
        <mxCell id="zuPwHXy1TFyjWQxAL-yT-34" value="Use" style="endArrow=open;endSize=12;dashed=1;html=1;exitX=0.003;exitY=0.057;exitDx=0;exitDy=0;exitPerimeter=0;entryX=1.008;entryY=0.125;entryDx=0;entryDy=0;entryPerimeter=0;" edge="1" parent="zuPwHXy1TFyjWQxAL-yT-1" source="zuPwHXy1TFyjWQxAL-yT-15" target="zuPwHXy1TFyjWQxAL-yT-23">
          <mxGeometry width="160" relative="1" as="geometry">
            <mxPoint x="151" y="2600" as="sourcePoint" />
            <mxPoint x="311" y="2600" as="targetPoint" />
          </mxGeometry>
        </mxCell>
        <mxCell id="zuPwHXy1TFyjWQxAL-yT-35" value="Actor" style="shape=umlActor;verticalLabelPosition=bottom;verticalAlign=top;html=1;" vertex="1" parent="zuPwHXy1TFyjWQxAL-yT-1">
          <mxGeometry x="-1161" y="2093" width="90" height="220" as="geometry" />
        </mxCell>
        <mxCell id="zuPwHXy1TFyjWQxAL-yT-36" value="A fantasticaaa" style="text;html=1;strokeColor=none;fillColor=none;align=center;verticalAlign=middle;whiteSpace=wrap;rounded=0;" vertex="1" parent="zuPwHXy1TFyjWQxAL-yT-1">
          <mxGeometry x="-991" y="2170" width="81" height="20" as="geometry" />
        </mxCell>
      </root>
    </mxGraphModel>
  </diagram>
</mxfile>
